<svg version="1.1" xmlns="http://www.w3.org/2000/svg" xmlns:xlink="http://www.w3.org/1999/xlink" width="47.99632" height="47.99632"><defs><linearGradient x1="14.22989" y1="18.36032" x2="42.25538" y2="38.12496" gradientUnits="userSpaceOnUse" id="color-1"><stop offset="0" stop-color="#000000" stop-opacity="0.47"></stop><stop offset="1" stop-color="#000000" stop-opacity="0"></stop></linearGradient><filter id="dropshadow-base"><feColorMatrix type="matrix" values="0 0 0 0 0  0 0 0 0 0  0 0 0 0 0  0 0 0 .8 0"></feColorMatrix> <feOffset dx="0" dy="1"></feOffset> <feGaussianBlur stdDeviation="1"></feGaussianBlur> <feComposite in="SourceGraphic"></feComposite></filter><filter id="dropshadow-banner" x="-10%" y="-10%" width="120%" height="130%"><feColorMatrix type="matrix" values="0 0 0 0 0  0 0 0 0 0  0 0 0 0 0  0 0 0 .4 0"></feColorMatrix> <feOffset dx="0" dy="1"></feOffset> <feGaussianBlur stdDeviation="0.5"></feGaussianBlur> <feComposite in="SourceGraphic"></feComposite></filter></defs><g transform="translate(-0.00184,-0.00184)"><g fill="none" fill-rule="nonzero" stroke="none" stroke-width="none" stroke-linecap="butt" stroke-linejoin="miter" stroke-miterlimit="10" stroke-dasharray="" stroke-dashoffset="0" font-family="none" font-weight="none" font-size="none" text-anchor="none" style="mix-blend-mode: normal"><path d="M2,24c0,-12.15026 9.84974,-22 22,-22c12.15026,0 22,9.84974 22,22c0,12.15026 -9.84974,22 -22,22c-12.15026,0 -22,-9.84974 -22,-22z" id="base 1 9" fill="#6b3be2" stroke-width="1"></path><path d="M42.25538,28.03534l-1.18763,-1.18763l-8.90198,8.89777l-8.48528,-8.48528l8.90409,-8.89988l8.48528,8.48528zM23.90491,32.23935l4.69588,4.69588l-1.18974,1.18974l-4.69588,-4.69588zM18.92577,29.63968l-4.69588,-4.69588l1.18974,-1.18974l4.69588,4.69588z" fill="url(#color-1)" stroke-width="1"></path><path d="M29.01538,19.55006l-1.18973,-1.18973l-5.33068,5.33488l1.18973,1.18973zM32.58458,18.36033l-8.90408,8.89988l-3.50614,-3.50614l-1.18973,1.18973l4.69587,4.69587l10.08961,-10.08961zM14.22989,24.9438l4.69587,4.69587l1.18973,-1.18973l-4.69587,-4.69587z" fill="none" stroke-width="0"></path><path d="M23.6847,24.88494l-1.18973,-1.18973l5.33068,-5.33488l1.18973,1.18973zM33.77011,19.55006l-10.08961,10.08961l-4.69587,-4.69587l1.18973,-1.18973l3.50614,3.50614l8.90408,-8.89988zM15.41962,23.75407l4.69587,4.69587l-1.18973,1.18973l-4.69587,-4.69587z" fill="#ffffff" stroke-width="0"></path><path d="M2,24c0,-12.15026 9.84974,-22 22,-22c12.15026,0 22,9.84974 22,22c0,12.15026 -9.84974,22 -22,22c-12.15026,0 -22,-9.84974 -22,-22z" id="base 1 5 1" fill="none" stroke-width="1"></path><path d="M2,24c0,-12.15026 9.84974,-22 22,-22c12.15026,0 22,9.84974 22,22c0,12.15026 -9.84974,22 -22,22c-12.15026,0 -22,-9.84974 -22,-22z" id="base 1 1 1" fill="none" stroke-width="1"></path><g fill="#000000" stroke-width="1" font-family="Roboto, sans-serif" font-weight="400" font-size="14" text-anchor="start"><g></g></g><rect x="2" y="2" width="44" height="22" fill="none" stroke-width="1"></rect><path d="M2,24v-22h44v22z" fill="none" stroke-width="1"></path><path d="M2,24v-22h44v22z" fill="none" stroke-width="1"></path><path d="M2,24v-22h44v22z" fill="none" stroke-width="1"></path><path d="M2,24v-22h44v22z" fill="none" stroke-width="1"></path><g fill="#000000" stroke-width="1" font-family="Roboto, sans-serif" font-weight="400" font-size="14" text-anchor="start"></g><rect x="2" y="2" width="44" height="22" fill="none" stroke-width="1"></rect><path d="M2,24v-22h44v22z" fill="none" stroke-width="1"></path><path d="M2,24v-22h44v22z" fill="none" stroke-width="1"></path><path d="M2,24v-22h44v22z" fill="none" stroke-width="1"></path><path d="M2,24v-22h44v22z" fill="none" stroke-width="1"></path><path d="M24,2c12.15026,0 22,9.84974 22,22h-44c0,-12.15026 9.84974,-22 22,-22z" id="base 1 5 1" fill-opacity="0.1" fill="#000000" stroke-width="1"></path></g></g></svg>